<svg width="97" height="97" viewBox="0 0 97 97" fill="none" xmlns="http://www.w3.org/2000/svg">
<rect x="3" y="3" width="91" height="91" rx="45.5" fill="#C4E5E8"/>
<rect x="3" y="3" width="91" height="91" rx="45.5" stroke="white" stroke-width="6"/>
<path d="M67 55C67 49.9 64.24 45.34 59.94 42.88L62.4 40.42C62.5854 40.2349 62.7325 40.0152 62.8329 39.7732C62.9332 39.5313 62.9849 39.2719 62.9849 39.01C62.9849 38.748 62.9332 38.4887 62.8329 38.2467C62.7325 38.0048 62.5854 37.785 62.4 37.6L61.4 36.6L63.4 34.6L57.4 28.6L55.4 30.6L54.4 29.6C54.215 29.4146 53.9952 29.2675 53.7532 29.1671C53.5113 29.0667 53.2519 29.0151 52.99 29.0151C52.7281 29.0151 52.4687 29.0667 52.2268 29.1671C51.9848 29.2675 51.765 29.4146 51.58 29.6L35.58 45.58C35.3946 45.765 35.2475 45.9848 35.1471 46.2267C35.0468 46.4687 34.9951 46.728 34.9951 46.99C34.9951 47.2519 35.0468 47.5113 35.1471 47.7532C35.2475 47.9952 35.3946 48.2149 35.58 48.4L43.58 56.4C43.98 56.8 44.48 56.98 45 56.98C45.52 56.98 46.02 56.78 46.42 56.4L56.98 45.84C60.62 47.42 63 50.96 63 54.98C63 60.5 58.52 64.98 53 64.98H31V68.98H67V64.98H62.78C64.1164 63.68 65.1784 62.1252 65.9032 60.4076C66.6281 58.6899 67.001 56.8443 67 54.98V55ZM45 52.18L39.82 47L53 33.82L58.18 39L45 52.18Z" fill="#0EA5A4"/>
<path d="M37.5801 60.42L39.0001 59L40.4201 57.58L37.4201 54.58L34.4201 51.58L33.0001 53L31.5801 54.42L34.5801 57.42L37.5801 60.42Z" fill="#0EA5A4"/>
</svg>
