<svg width="97" height="97" viewBox="0 0 97 97" fill="none" xmlns="http://www.w3.org/2000/svg">
<rect x="3" y="3" width="91" height="91" rx="45.5" fill="#C4E5E8"/>
<rect x="3" y="3" width="91" height="91" rx="45.5" stroke="white" stroke-width="6"/>
<path d="M67 49C67 53.7739 65.1036 58.3523 61.7279 61.7279C58.3523 65.1036 53.7739 67 49 67M67 49C67 44.2261 65.1036 39.6477 61.7279 36.2721C58.3523 32.8964 53.7739 31 49 31M67 49H31M49 67C44.2261 67 39.6477 65.1036 36.2721 61.7279C32.8964 58.3523 31 53.7739 31 49M49 67C52.866 67 56 58.94 56 49C56 39.06 52.866 31 49 31M49 67C45.134 67 42 58.94 42 49C42 39.06 45.134 31 49 31M49 31C44.2261 31 39.6477 32.8964 36.2721 36.2721C32.8964 39.6477 31 44.2261 31 49" stroke="#0EA5A4" stroke-width="4" stroke-linejoin="round"/>
</svg>
